<svg xmlns="http://www.w3.org/2000/svg" viewBox="0 0 360 360" role="img" aria-label="Kind en Loopbaan">
  <rect width="360" height="360" fill="#f5f0e3"/>
  <g fill="#0d6068">
    <!-- kind -->
    <g transform="translate(60,250)">
      <circle cx="0" cy="-50" r="14"/>
      <rect x="-12" y="-32" width="24" height="34" rx="6"/>
      <line x1="-6" y1="2" x2="-8" y2="22" stroke="#0d6068" stroke-width="4" stroke-linecap="round"/>
      <line x1="6" y1="2" x2="8" y2="22" stroke="#0d6068" stroke-width="4" stroke-linecap="round"/>
    </g>
    <!-- groter -->
    <g transform="translate(140,232)">
      <circle cx="0" cy="-68" r="18"/>
      <rect x="-16" y="-46" width="32" height="46" rx="7"/>
      <line x1="-8" y1="2" x2="-10" y2="30" stroke="#0d6068" stroke-width="5" stroke-linecap="round"/>
      <line x1="8" y1="2" x2="10" y2="30" stroke="#0d6068" stroke-width="5" stroke-linecap="round"/>
    </g>
    <!-- tiener -->
    <g transform="translate(225,210)">
      <circle cx="0" cy="-86" r="22"/>
      <rect x="-20" y="-62" width="40" height="58" rx="8"/>
      <line x1="-10" y1="-2" x2="-12" y2="38" stroke="#0d6068" stroke-width="6" stroke-linecap="round"/>
      <line x1="10" y1="-2" x2="12" y2="38" stroke="#0d6068" stroke-width="6" stroke-linecap="round"/>
    </g>
    <!-- volwassen -->
    <g transform="translate(310,180)">
      <circle cx="0" cy="-104" r="26"/>
      <rect x="-24" y="-76" width="48" height="72" rx="10"/>
      <line x1="-12" y1="-2" x2="-15" y2="48" stroke="#0d6068" stroke-width="7" stroke-linecap="round"/>
      <line x1="12" y1="-2" x2="15" y2="48" stroke="#0d6068" stroke-width="7" stroke-linecap="round"/>
    </g>
  </g>
  <!-- pad -->
  <path d="M 30 290 Q 100 270 140 280 T 225 275 T 310 270 T 350 275" fill="none" stroke="#d4af37" stroke-width="3" stroke-dasharray="2 8" stroke-linecap="round"/>
  <line x1="0" y1="290" x2="360" y2="290" stroke="#1a1a1a" stroke-width="1.2" opacity="0.4"/>
</svg>
